<?xml version="1.0" encoding="UTF-8"?>
<svg width="201px" height="24px" viewBox="0 0 201 24" version="1.1" xmlns="http://www.w3.org/2000/svg" xmlns:xlink="http://www.w3.org/1999/xlink">
    <!-- Generator: Sketch 49.3 (51167) - http://www.bohemiancoding.com/sketch -->
    <title>Page 1</title>
    <desc>Created with Sketch.</desc>
    <defs>
        <polygon id="path-1" points="0 0.271292121 23.2494655 0.271292121 23.2494655 23.2601164 0 23.2601164"></polygon>
        <polygon id="path-3" points="0.958092121 0.983311515 4.88546182 0.983311515 4.88546182 4.8969697 0.958092121 4.8969697"></polygon>
        <polygon id="path-5" points="0.943033939 1.08492364 5.00751879 1.08492364 5.00751879 24.4848485 0.943033939 24.4848485"></polygon>
        <polygon id="path-7" points="0.791227879 1.08492364 12.5182461 1.08492364 12.5182461 24.4848485 0.791227879 24.4848485"></polygon>
    </defs>
    <g id="Page-1" stroke="none" stroke-width="1" fill="none" fill-rule="evenodd">
        <g id="Logo" transform="translate(0.000000, -8.000000)">
            <g id="Page-1" transform="translate(0.000000, 7.000000)">
                <g id="Group-3" transform="translate(0.000000, 1.363684)">
                    <mask id="mask-2" fill="white">
                        <use xlink:href="#path-1"></use>
                    </mask>
                    <g id="Clip-2"></g>
                    <path d="M2.07986545,0.271292121 L2.1618897,0.271292121 C2.81930788,0.271292121 3.39837455,0.585922424 3.90031394,1.21518303 C4.08272606,1.46125576 6.32186545,4.30761939 10.6189564,9.75427394 C11.2849442,10.5843103 11.6228352,11.0042255 11.6314048,11.0127952 C14.7519988,7.08052848 17.4159503,3.71018909 19.6232594,0.900552727 C20.0799018,0.480637576 20.5634776,0.271292121 21.0739867,0.271292121 L21.2098776,0.271292121 C21.9125927,0.271292121 22.4965564,0.617752727 22.9617685,1.31067394 C23.1539745,1.65713455 23.2494655,2.00481939 23.2494655,2.35128 C23.2494655,2.95238303 22.9715624,3.55103758 22.4145321,4.14357091 L13.1090655,15.92568 C12.662217,16.3272315 12.1700715,16.5280073 11.6314048,16.5280073 C10.8564594,16.5280073 10.2357685,16.1717527 9.77055636,15.4604679 L4.28350182,8.53615273 L4.28350182,21.0711709 C4.28350182,22.1105527 3.79992606,22.8181648 2.83277455,23.192783 C2.69565939,23.23808 2.59527152,23.2601164 2.53161091,23.2601164 L1.84725939,23.2601164 C1.50936848,23.2601164 1.11761091,23.0642376 0.670762424,22.67248 C0.269210909,22.2427709 0.0684351515,21.7273648 0.0684351515,21.1262618 L0.0684351515,2.93891636 L-0.000122424242,2.37821333 C-0.000122424242,1.58490424 0.378168485,0.959316364 1.13597455,0.503898182 C1.44570788,0.348419394 1.76033818,0.271292121 2.07986545,0.271292121" id="Fill-1" fill="#F1F1F2" mask="url(#mask-2)"></path>
                </g>
                <path d="M60.8584376,18.2202776 C60.8584376,18.8862655 60.5340133,19.5106291 59.8876133,20.0945927 C59.8876133,20.13132 59.5497224,20.4692109 58.8739406,21.1070412 C56.4474921,23.2506897 53.6194921,24.3231261 50.3899406,24.3231261 C46.0291891,24.3231261 42.443383,22.398617 39.6349709,18.5483745 C39.1685345,17.864023 38.7816739,17.1796715 38.4707164,16.49532 C38.20628,15.884423 37.9871406,15.2551624 37.8145224,14.6075382 C37.5770194,13.5767261 37.4582679,12.783417 37.4582679,12.2263867 L37.4582679,10.3790048 C37.4582679,9.43021697 37.7141345,8.20352606 38.2246436,6.69770788 C38.5808982,5.83094424 38.9775527,5.05967152 39.4146073,4.38511394 C39.7622921,3.81951394 40.3915527,3.05803515 41.3036133,2.10067758 C41.7235285,1.7174897 42.1973103,1.52528364 42.726183,1.52528364 L42.7678073,1.52528364 C43.5709103,1.52528364 44.2038436,1.91826545 44.67028,2.70178061 C44.8159648,3.01273818 44.8894194,3.34573212 44.8894194,3.70076242 C44.8894194,4.17576848 44.7241467,4.62261697 44.3960497,5.04253212 C42.6355891,6.72953818 41.7553588,8.82299273 41.7553588,11.3228958 C41.7553588,14.2696473 43.018777,16.6605927 45.5456133,18.4932836 C46.9694073,19.4604352 48.5927527,19.9440109 50.4168739,19.9440109 C53.1359164,19.9440109 55.41668,18.8226048 57.2591648,16.5785685 C57.7060133,16.2223139 58.1846921,16.0447988 58.6964255,16.0447988 C59.4995285,16.0447988 60.1373588,16.4279867 60.6123648,17.1943624 C60.7764133,17.5310291 60.8584376,17.873817 60.8584376,18.2202776" id="Fill-4" fill="#F1F1F2"></path>
                <path d="M91.7484,1.22436485 L91.8989818,1.22436485 C92.5184485,1.22436485 93.0571152,1.54389212 93.5137576,2.18172242 C93.6863758,2.51104364 93.773297,2.85260727 93.773297,3.20886182 C93.773297,3.91035273 93.4268364,4.4808497 92.7339152,4.91912848 C92.4229576,5.06481333 92.1401576,5.13826788 91.8855152,5.13826788 L91.7349333,5.13826788 C91.0689455,5.13826788 90.5217091,4.80037697 90.092,4.12581939 C89.9279515,3.80629212 89.8459273,3.48676485 89.8459273,3.16723758 C89.8459273,2.46452242 90.1838182,1.89892242 90.8583758,1.47043758 C91.1607636,1.30638909 91.4558061,1.22436485 91.7484,1.22436485" id="Fill-6" fill="#1E8DE0"></path>
                <g id="Group-10" transform="translate(18.363636, 19.727320)">
                    <mask id="mask-4" fill="white">
                        <use xlink:href="#path-3"></use>
                    </mask>
                    <g id="Clip-9"></g>
                    <path d="M2.86056485,0.983311515 L3.01114667,0.983311515 C3.63183758,0.983311515 4.16928,1.30283879 4.62592242,1.94066909 C4.79854061,2.2699903 4.88546182,2.61155394 4.88546182,2.96780848 C4.88546182,3.66929939 4.53900121,4.23979636 3.84608,4.67807515 C3.53634667,4.82376 3.25232242,4.89721455 2.99768,4.89721455 L2.84709818,4.89721455 C2.1811103,4.89721455 1.63387394,4.55932364 1.20416485,3.88476606 C1.04134061,3.56523879 0.958092121,3.24571152 0.958092121,2.92618424 C0.958092121,2.22346909 1.29598303,1.65786909 1.97054061,1.22938424 C2.27292848,1.06533576 2.56919515,0.983311515 2.86056485,0.983311515" id="Fill-8" fill="#1E8DE0" mask="url(#mask-4)"></path>
                </g>
                <g id="Group-13" transform="translate(113.854545, 0.139441)">
                    <mask id="mask-6" fill="white">
                        <use xlink:href="#path-5"></use>
                    </mask>
                    <g id="Clip-12"></g>
                    <path d="M2.89937333,1.08492364 L3.04995515,1.08492364 C3.74287636,1.08492364 4.3182703,1.42648727 4.77368848,2.11083879 C4.92916727,2.42179636 5.00751879,2.71806303 5.00751879,3.00086303 L5.00751879,22.5691539 C5.00751879,23.3906206 4.58270667,23.9966206 3.73430667,24.3896024 C3.54210061,24.453263 3.40988242,24.4850933 3.33765212,24.4850933 L2.61167636,24.4850933 C2.28357939,24.4850933 1.89182182,24.2745236 1.43517939,23.8558327 C1.10708242,23.4726448 0.943033939,23.0245721 0.943033939,22.514063 L0.943033939,3.06942061 C0.943033939,2.21122667 1.38008848,1.58686303 2.25664606,1.19388121 C2.49292485,1.12165091 2.70839152,1.08492364 2.89937333,1.08492364" id="Fill-11" fill="#F1F1F2" mask="url(#mask-6)"></path>
                </g>
                <path d="M139.939846,7.62837697 C139.939846,6.96238909 140.26427,6.33802545 140.91067,5.75406182 C140.91067,5.71733455 141.248561,5.37944364 141.924343,4.74161333 C144.350792,2.59796485 147.178792,1.52552848 150.408343,1.52552848 C154.769095,1.52552848 158.353676,3.45003758 161.163313,7.30028 C161.629749,7.98463152 162.01661,8.66898303 162.327567,9.35333455 C162.592004,9.96423152 162.811143,10.5934921 162.983761,11.2411164 C163.221264,12.2719285 163.340016,13.0652376 163.340016,13.6222679 L163.340016,15.4696497 C163.340016,16.4184376 163.084149,17.6451285 162.57364,19.1509467 C162.217385,20.0177103 161.820731,20.788983 161.383676,21.4635406 C161.035992,22.0291406 160.406731,22.7906194 159.49467,23.747977 C159.074755,24.1311648 158.600973,24.3233709 158.072101,24.3233709 L158.030476,24.3233709 C157.227373,24.3233709 156.593216,23.9303891 156.128004,23.1468739 C155.982319,22.8359164 155.908864,22.5029224 155.908864,22.1478921 C155.908864,21.6728861 156.072913,21.2260376 156.402234,20.8061224 C158.162695,19.1191164 159.042925,17.0244376 159.042925,14.5257588 C159.042925,11.5790073 157.779507,9.18806182 155.25267,7.35414667 C153.828876,6.38821939 152.205531,5.90464364 150.380185,5.90464364 C147.662367,5.90464364 145.381604,7.0260497 143.537895,9.27008606 C143.09227,9.62634061 142.612367,9.80385576 142.101858,9.80385576 C141.298755,9.80385576 140.659701,9.42066788 140.185919,8.65429212 C140.02187,8.31640121 139.939846,7.97483758 139.939846,7.62837697" id="Fill-14" fill="#F1F1F2"></path>
                <path d="M180.162208,19.493 L180.299324,19.493 C181.12936,19.493 181.832075,19.8847576 182.406245,20.669497 C182.680475,21.1249152 182.816366,21.5546242 182.816366,21.9561758 L182.816366,22.1471576 C182.816366,22.9686242 182.433178,23.6615455 181.666802,24.2271455 C181.238318,24.4915818 180.88696,24.6238 180.613954,24.6238 L179.847578,24.6238 C179.446027,24.6238 178.967348,24.3960909 178.410318,23.9394485 C177.899808,23.3738485 177.643942,22.7947818 177.643942,22.2022485 L177.643942,21.9965758 C177.643942,21.2118364 178.005093,20.5372788 178.724948,19.9716788 C179.18159,19.6521515 179.660269,19.493 180.162208,19.493" id="Fill-16" fill="#1E8DE0"></path>
                <g id="Group-20" transform="translate(73.454545, 0.139441)">
                    <mask id="mask-8" fill="white">
                        <use xlink:href="#path-7"></use>
                    </mask>
                    <g id="Clip-19"></g>
                    <path d="M2.69370061,1.08492364 L10.6304642,1.08492364 C11.2964521,1.08492364 11.8485855,1.42648727 12.28564,2.11083879 C12.4411188,2.42179636 12.5182461,2.71806303 12.5182461,3.00086303 L12.5182461,22.5960873 C12.5182461,23.3257358 12.1497491,23.9060267 11.4103067,24.3345115 C11.1642339,24.4348994 10.9903915,24.4850933 10.8900036,24.4850933 L10.220343,24.4850933 C9.90081576,24.4667297 9.54088848,24.2843176 9.13933697,23.937857 C8.77451273,23.5546691 8.59087636,23.04416 8.59087636,22.4051055 L8.59087636,4.99882667 L2.66676727,4.99882667 C2.0558703,4.99882667 1.52087636,4.68297212 1.06545818,4.05371152 C0.883046061,3.68031758 0.791227879,3.34242667 0.791227879,3.04126303 C0.791227879,2.36670545 1.10218545,1.80967515 1.72287636,1.37139636 C2.05097333,1.18041455 2.37417333,1.08492364 2.69370061,1.08492364" id="Fill-18" fill="#F1F1F2" mask="url(#mask-8)"></path>
                </g>
                <path d="M179.751598,1.49810545 C180.427379,1.49810545 181.051743,1.84456606 181.625913,2.53748727 C186.853428,7.76500242 191.83487,12.7415479 196.569016,17.4671236 L196.583707,17.4671236 L196.583707,3.61849333 C196.583707,2.74316 197.017088,2.09063879 197.883852,1.66215394 C198.156858,1.55197212 198.434761,1.49810545 198.718785,1.49810545 C199.43007,1.49810545 200.017707,1.83477212 200.484143,2.51055394 C200.683695,2.84844485 200.784082,3.19000848 200.784082,3.53769333 L200.784082,22.6407721 C200.784082,23.3153297 200.451088,23.8858267 199.785101,24.3510388 C199.466798,24.5322267 199.214604,24.6240448 199.033416,24.6240448 L198.335598,24.6240448 C198.014846,24.6240448 197.627985,24.4281661 197.171343,24.0364085 C196.587379,23.4157176 193.148482,19.9670267 186.853428,13.6903358 C181.361476,8.19838424 178.451452,5.28346303 178.123355,4.94557212 C177.803828,4.53545091 177.644676,4.11676 177.644676,3.68705091 L177.644676,3.48260242 C177.644676,2.88027515 177.949513,2.33793576 178.561634,1.85436 C178.953392,1.61685697 179.350046,1.49810545 179.751598,1.49810545" id="Fill-21" fill="#F1F1F2"></path>
            </g>
        </g>
    </g>
</svg>